{"title":"DEV Ft. Enrique Iglesias - Naked (h264/mp4)","uid":7160900,"size":63060162,"categoryP":"video","categoryS":"music_videos","magnet":"?xt=urn:btih:31e00143bc0fd0f1f161e27f909c30019ba5dabf&amp;dn=DEV+Ft.+Enrique+Iglesias+-+Naked+%28h264%2Fmp4%29&amp;tr=udp%3A%2F%2Ftracker.openbittorrent.com%3A80&amp;tr=udp%3A%2F%2Fopen.demonii.com%3A1337&amp;tr=udp%3A%2F%2Ftracker.coppersurfer.tk%3A6969&amp;tr=udp%3A%2F%2Fexodus.desync.com%3A6969","seeders":1,"leechers":0,"uploader":"MusicVideos-HQ","files":1,"time":1333611214,"description":"General\n\nFormat : MPEG-4\nFormat profile : Base Media\nCodec ID : isom\nFile size : 60.1 MiB\nDuration : 3mn 5s\nOverall bit rate : 2 720 Kbps\nEncoded date : UTC 2012-04-04 21:43:18\nTagged date : UTC 2012-04-04 21:43:18\n\nVideo\nID : 1\nFormat : AVC\nFormat/Info : Advanced Video Codec\nFormat profile : &lt;a class=&quot;__cf_email__&quot; href=&quot;/cdn-cgi/l/email-protection&quot; data-cfemail=&quot;155d7c727d5559263b25&quot;&gt;[email&amp;#160;protected]&lt;/a&gt;&lt;script cf-hash='f9e31' type=&quot;text/javascript&quot;&gt;\n/* &lt;![CDATA[ */!function(){try{var t=&quot;currentScript&quot;in document?document.currentScript:function(){for(var t=document.getElementsByTagName(&quot;script&quot;),e=t.length;e--;)if(t[e].getAttribute(&quot;cf-hash&quot;))return t[e]}();if(t&amp;&amp;t.previousSibling){var e,r,n,i,c=t.previousSibling,a=c.getAttribute(&quot;data-cfemail&quot;);if(a){for(e=&quot;&quot;,r=parseInt(a.substr(0,2),16),n=2;a.length-n;n+=2)i=parseInt(a.substr(n,2),16)^r,e+=String.fromCharCode(i);e=document.createTextNode(e),c.parentNode.replaceChild(e,c)}}}catch(u){}}();/* ]]&gt; */&lt;/script&gt;\nFormat settings, CABAC : Yes\nFormat settings, ReFrames : 2 frames\nFormat settings, GOP : M=1, N=10\nCodec ID : avc1\nCodec ID/Info : Advanced Video Coding\nDuration : 3mn 5s\nBit rate mode : Variable\nBit rate : 2 675 Kbps\nMaximum bit rate : 5 220 Kbps\nWidth : 720 pixels\nHeight : 480 pixels\nDisplay aspect ratio : 16:9\nOriginal display aspect ratio : 16:9\nFrame rate mode : Constant\nFrame rate : 23.976 fps\nStandard : NTSC\nColor space : YUV\nChroma subsampling : 4:2:0\nBit depth : 8 bits\nScan type : Progressive\nBits/(Pixel*Frame) : 0.323\nStream size : 58.6 MiB (97%)\n\n\nAudio\nID : 2\nFormat : AAC\nFormat/Info : Advanced Audio Codec\nFormat profile : LC\nCodec ID : 40\nDuration : 3mn 5s\nBit rate mode : Variable\nBit rate : 66.15 Kbps\nMaximum bit rate : 74.8 Kbps\nChannel(s) : 2 channels\nChannel positions : Front: L R\nSampling rate : 44.1 KHz\nCompression mode : Lossy\nStream size : 1.44 MiB (2%)\n","torrent":{"xt":"urn:btih:31e00143bc0fd0f1f161e27f909c30019ba5dabf","amp;dn":"DEV+Ft.+Enrique+Iglesias+-+Naked+%28h264%2Fmp4%29","amp;tr":["udp%3A%2F%2Ftracker.openbittorrent.com%3A80","udp%3A%2F%2Fopen.demonii.com%3A1337","udp%3A%2F%2Ftracker.coppersurfer.tk%3A6969","udp%3A%2F%2Fexodus.desync.com%3A6969"],"infoHash":"31e00143bc0fd0f1f161e27f909c30019ba5dabf","infoHashBuffer":{"type":"Buffer","data":[49,224,1,67,188,15,208,241,241,97,226,127,144,156,48,1,155,165,218,191]},"announce":[],"urlList":[]}}